<?xml version="1.0" encoding="utf-8" standalone="no"?>
<!DOCTYPE svg PUBLIC "-//W3C//DTD SVG 1.1//EN"
  "http://www.w3.org/Graphics/SVG/1.1/DTD/svg11.dtd">
<!-- Created with matplotlib (http://matplotlib.org/) -->
<svg height="345pt" version="1.1" viewBox="0 0 460 345" width="460pt" xmlns="http://www.w3.org/2000/svg" xmlns:xlink="http://www.w3.org/1999/xlink">
 <defs>
  <style type="text/css">
*{stroke-linecap:butt;stroke-linejoin:round;}
  </style>
 </defs>
 <g id="figure_1">
  <g id="patch_1">
   <path d="M 0 345.6 
L 460.8 345.6 
L 460.8 0 
L 0 0 
z
" style="fill:#ffffff;"/>
  </g>
  <g id="axes_1">
   <g id="patch_2">
    <path d="M 57.6 307.584 
L 414.72 307.584 
L 414.72 41.472 
L 57.6 41.472 
z
" style="fill:#ffffff;"/>
   </g>
   <g id="PathCollection_1">
    <defs>
     <path d="M 0 2.738613 
C 0.726289 2.738613 1.422928 2.450055 1.936492 1.936492 
C 2.450055 1.422928 2.738613 0.726289 2.738613 0 
C 2.738613 -0.726289 2.450055 -1.422928 1.936492 -1.936492 
C 1.422928 -2.450055 0.726289 -2.738613 0 -2.738613 
C -0.726289 -2.738613 -1.422928 -2.450055 -1.936492 -1.936492 
C -2.450055 -1.422928 -2.738613 -0.726289 -2.738613 0 
C -2.738613 0.726289 -2.450055 1.422928 -1.936492 1.936492 
C -1.422928 2.450055 -0.726289 2.738613 0 2.738613 
z
" id="C0_0_b481aee386"/>
    </defs>
    <g clip-path="url(#p43ed38298e)">
     <use style="fill:#440154;" x="73.887277" xlink:href="#C0_0_b481aee386" y="94.983367"/>
    </g>
    <g clip-path="url(#p43ed38298e)">
     <use style="fill:#440154;" x="103.032149" xlink:href="#C0_0_b481aee386" y="70.508095"/>
    </g>
    <g clip-path="url(#p43ed38298e)">
     <use style="fill:#440154;" x="94.140493" xlink:href="#C0_0_b481aee386" y="132.461127"/>
    </g>
    <g clip-path="url(#p43ed38298e)">
     <use style="fill:#440154;" x="94.140493" xlink:href="#C0_0_b481aee386" y="102.631889"/>
    </g>
    <g clip-path="url(#p43ed38298e)">
     <use style="fill:#440154;" x="107.477977" xlink:href="#C0_0_b481aee386" y="103.396742"/>
    </g>
    <g clip-path="url(#p43ed38298e)">
     <use style="fill:#440154;" x="105.502054" xlink:href="#C0_0_b481aee386" y="91.923958"/>
    </g>
    <g clip-path="url(#p43ed38298e)">
     <use style="fill:#440154;" x="101.056226" xlink:href="#C0_0_b481aee386" y="120.988343"/>
    </g>
    <g clip-path="url(#p43ed38298e)">
     <use style="fill:#440154;" x="121.309442" xlink:href="#C0_0_b481aee386" y="114.869525"/>
    </g>
    <g clip-path="url(#p43ed38298e)">
     <use style="fill:#440154;" x="121.309442" xlink:href="#C0_0_b481aee386" y="96.513071"/>
    </g>
    <g clip-path="url(#p43ed38298e)">
     <use style="fill:#440154;" x="161.815876" xlink:href="#C0_0_b481aee386" y="78.92147"/>
    </g>
    <g clip-path="url(#p43ed38298e)">
     <use style="fill:#440154;" x="149.466353" xlink:href="#C0_0_b481aee386" y="94.218515"/>
    </g>
    <g clip-path="url(#p43ed38298e)">
     <use style="fill:#440154;" x="140.080716" xlink:href="#C0_0_b481aee386" y="81.980879"/>
    </g>
    <g clip-path="url(#p43ed38298e)">
     <use style="fill:#440154;" x="131.683041" xlink:href="#C0_0_b481aee386" y="105.691298"/>
    </g>
    <g clip-path="url(#p43ed38298e)">
     <use style="fill:#440154;" x="131.683041" xlink:href="#C0_0_b481aee386" y="82.745731"/>
    </g>
    <g clip-path="url(#p43ed38298e)">
     <use style="fill:#440154;" x="80.803009" xlink:href="#C0_0_b481aee386" y="114.104673"/>
    </g>
    <g clip-path="url(#p43ed38298e)">
     <use style="fill:#440154;" x="74.875238" xlink:href="#C0_0_b481aee386" y="170.703739"/>
    </g>
    <g clip-path="url(#p43ed38298e)">
     <use style="fill:#440154;" x="109.453901" xlink:href="#C0_0_b481aee386" y="143.93391"/>
    </g>
    <g clip-path="url(#p43ed38298e)">
     <use style="fill:#440154;" x="109.453901" xlink:href="#C0_0_b481aee386" y="127.872013"/>
    </g>
    <g clip-path="url(#p43ed38298e)">
     <use style="fill:#440154;" x="110.441863" xlink:href="#C0_0_b481aee386" y="167.64433"/>
    </g>
    <g clip-path="url(#p43ed38298e)">
     <use style="fill:#440154;" x="131.18906" xlink:href="#C0_0_b481aee386" y="124.047752"/>
    </g>
    <g clip-path="url(#p43ed38298e)">
     <use style="fill:#440154;" x="143.538583" xlink:href="#C0_0_b481aee386" y="114.104673"/>
    </g>
    <g clip-path="url(#p43ed38298e)">
     <use style="fill:#440154;" x="135.140907" xlink:href="#C0_0_b481aee386" y="141.639354"/>
    </g>
    <g clip-path="url(#p43ed38298e)">
     <use style="fill:#440154;" x="120.815461" xlink:href="#C0_0_b481aee386" y="143.93391"/>
    </g>
    <g clip-path="url(#p43ed38298e)">
     <use style="fill:#440154;" x="81.790971" xlink:href="#C0_0_b481aee386" y="142.404206"/>
    </g>
    <g clip-path="url(#p43ed38298e)">
     <use style="fill:#440154;" x="179.105207" xlink:href="#C0_0_b481aee386" y="53.681346"/>
    </g>
    <g clip-path="url(#p43ed38298e)">
     <use style="fill:#440154;" x="233.443105" xlink:href="#C0_0_b481aee386" y="56.740755"/>
    </g>
    <g clip-path="url(#p43ed38298e)">
     <use style="fill:#440154;" x="159.839952" xlink:href="#C0_0_b481aee386" y="117.164082"/>
    </g>
    <g clip-path="url(#p43ed38298e)">
     <use style="fill:#440154;" x="184.538997" xlink:href="#C0_0_b481aee386" y="120.223491"/>
    </g>
    <g clip-path="url(#p43ed38298e)">
     <use style="fill:#440154;" x="146.996449" xlink:href="#C0_0_b481aee386" y="154.641842"/>
    </g>
    <g clip-path="url(#p43ed38298e)">
     <use style="fill:#440154;" x="326.311513" xlink:href="#C0_0_b481aee386" y="169.174034"/>
    </g>
    <g clip-path="url(#p43ed38298e)">
     <use style="fill:#440154;" x="343.600844" xlink:href="#C0_0_b481aee386" y="118.693786"/>
    </g>
    <g clip-path="url(#p43ed38298e)">
     <use style="fill:#440154;" x="325.323551" xlink:href="#C0_0_b481aee386" y="136.285388"/>
    </g>
    <g clip-path="url(#p43ed38298e)">
     <use style="fill:#440154;" x="340.142978" xlink:href="#C0_0_b481aee386" y="145.463615"/>
    </g>
    <g clip-path="url(#p43ed38298e)">
     <use style="fill:#440154;" x="308.528201" xlink:href="#C0_0_b481aee386" y="222.713691"/>
    </g>
    <g clip-path="url(#p43ed38298e)">
     <use style="fill:#440154;" x="296.178679" xlink:href="#C0_0_b481aee386" y="145.463615"/>
    </g>
    <g clip-path="url(#p43ed38298e)">
     <use style="fill:#440154;" x="285.80508" xlink:href="#C0_0_b481aee386" y="182.941375"/>
    </g>
    <g clip-path="url(#p43ed38298e)">
     <use style="fill:#440154;" x="293.214793" xlink:href="#C0_0_b481aee386" y="102.631889"/>
    </g>
    <g clip-path="url(#p43ed38298e)">
     <use style="fill:#440154;" x="225.04543" xlink:href="#C0_0_b481aee386" y="156.171546"/>
    </g>
    <g clip-path="url(#p43ed38298e)">
     <use style="fill:#440154;" x="266.539825" xlink:href="#C0_0_b481aee386" y="251.778076"/>
    </g>
    <g clip-path="url(#p43ed38298e)">
     <use style="fill:#440154;" x="287.287022" xlink:href="#C0_0_b481aee386" y="225.008248"/>
    </g>
    <g clip-path="url(#p43ed38298e)">
     <use style="fill:#440154;" x="316.925876" xlink:href="#C0_0_b481aee386" y="169.174034"/>
    </g>
    <g clip-path="url(#p43ed38298e)">
     <use style="fill:#440154;" x="308.03422" xlink:href="#C0_0_b481aee386" y="127.107161"/>
    </g>
    <g clip-path="url(#p43ed38298e)">
     <use style="fill:#440154;" x="307.540239" xlink:href="#C0_0_b481aee386" y="158.466103"/>
    </g>
    <g clip-path="url(#p43ed38298e)">
     <use style="fill:#440154;" x="312.974029" xlink:href="#C0_0_b481aee386" y="145.463615"/>
    </g>
    <g clip-path="url(#p43ed38298e)">
     <use style="fill:#440154;" x="312.974029" xlink:href="#C0_0_b481aee386" y="159.995807"/>
    </g>
    <g clip-path="url(#p43ed38298e)">
     <use style="fill:#440154;" x="318.407819" xlink:href="#C0_0_b481aee386" y="156.171546"/>
    </g>
    <g clip-path="url(#p43ed38298e)">
     <use style="fill:#440154;" x="318.407819" xlink:href="#C0_0_b481aee386" y="143.93391"/>
    </g>
    <g clip-path="url(#p43ed38298e)">
     <use style="fill:#440154;" x="313.46801" xlink:href="#C0_0_b481aee386" y="152.347285"/>
    </g>
    <g clip-path="url(#p43ed38298e)">
     <use style="fill:#440154;" x="322.853647" xlink:href="#C0_0_b481aee386" y="152.347285"/>
    </g>
    <g clip-path="url(#p43ed38298e)">
     <use style="fill:#440154;" x="322.853647" xlink:href="#C0_0_b481aee386" y="135.520536"/>
    </g>
    <g clip-path="url(#p43ed38298e)">
     <use style="fill:#440154;" x="329.769379" xlink:href="#C0_0_b481aee386" y="123.2829"/>
    </g>
    <g clip-path="url(#p43ed38298e)">
     <use style="fill:#440154;" x="337.673074" xlink:href="#C0_0_b481aee386" y="87.334845"/>
    </g>
    <g clip-path="url(#p43ed38298e)">
     <use style="fill:#440154;" x="364.842023" xlink:href="#C0_0_b481aee386" y="83.510583"/>
    </g>
    <g clip-path="url(#p43ed38298e)">
     <use style="fill:#440154;" x="387.071163" xlink:href="#C0_0_b481aee386" y="74.332356"/>
    </g>
    <g clip-path="url(#p43ed38298e)">
     <use style="fill:#440154;" x="344.588806" xlink:href="#C0_0_b481aee386" y="150.052728"/>
    </g>
    <g clip-path="url(#p43ed38298e)">
     <use style="fill:#440154;" x="326.805494" xlink:href="#C0_0_b481aee386" y="181.41167"/>
    </g>
    <g clip-path="url(#p43ed38298e)">
     <use style="fill:#440154;" x="349.528615" xlink:href="#C0_0_b481aee386" y="181.41167"/>
    </g>
    <g clip-path="url(#p43ed38298e)">
     <use style="fill:#440154;" x="346.56473" xlink:href="#C0_0_b481aee386" y="189.825045"/>
    </g>
    <g clip-path="url(#p43ed38298e)">
     <use style="fill:#440154;" x="398.432723" xlink:href="#C0_0_b481aee386" y="169.938887"/>
    </g>
    <g clip-path="url(#p43ed38298e)">
     <use style="fill:#440154;" x="176.141321" xlink:href="#C0_0_b481aee386" y="243.364702"/>
    </g>
    <g clip-path="url(#p43ed38298e)">
     <use style="fill:#440154;" x="175.15336" xlink:href="#C0_0_b481aee386" y="259.426599"/>
    </g>
    <g clip-path="url(#p43ed38298e)">
     <use style="fill:#440154;" x="189.478806" xlink:href="#C0_0_b481aee386" y="257.896894"/>
    </g>
    <g clip-path="url(#p43ed38298e)">
     <use style="fill:#440154;" x="181.08113" xlink:href="#C0_0_b481aee386" y="255.602337"/>
    </g>
    <g clip-path="url(#p43ed38298e)">
     <use style="fill:#440154;" x="182.069092" xlink:href="#C0_0_b481aee386" y="245.659258"/>
    </g>
    <g clip-path="url(#p43ed38298e)">
     <use style="fill:#440154;" x="189.972786" xlink:href="#C0_0_b481aee386" y="247.188963"/>
    </g>
    <g clip-path="url(#p43ed38298e)">
     <use style="fill:#440154;" x="189.972786" xlink:href="#C0_0_b481aee386" y="209.711203"/>
    </g>
    <g clip-path="url(#p43ed38298e)">
     <use style="fill:#440154;" x="154.406162" xlink:href="#C0_0_b481aee386" y="212.00576"/>
    </g>
    <g clip-path="url(#p43ed38298e)">
     <use style="fill:#440154;" x="166.755684" xlink:href="#C0_0_b481aee386" y="228.832509"/>
    </g>
    <g clip-path="url(#p43ed38298e)">
     <use style="fill:#440154;" x="161.815876" xlink:href="#C0_0_b481aee386" y="260.956303"/>
    </g>
    <g clip-path="url(#p43ed38298e)">
     <use style="fill:#440154;" x="133.164984" xlink:href="#C0_0_b481aee386" y="244.894406"/>
    </g>
    <g clip-path="url(#p43ed38298e)">
     <use style="fill:#440154;" x="187.008901" xlink:href="#C0_0_b481aee386" y="280.842461"/>
    </g>
    <g clip-path="url(#p43ed38298e)">
     <use style="fill:#440154;" x="157.370048" xlink:href="#C0_0_b481aee386" y="295.374654"/>
    </g>
    <g clip-path="url(#p43ed38298e)">
     <use style="fill:#440154;" x="218.623678" xlink:href="#C0_0_b481aee386" y="247.953815"/>
    </g>
    <g clip-path="url(#p43ed38298e)">
     <use style="fill:#440154;" x="189.972786" xlink:href="#C0_0_b481aee386" y="244.894406"/>
    </g>
    <g clip-path="url(#p43ed38298e)">
     <use style="fill:#440154;" x="209.238041" xlink:href="#C0_0_b481aee386" y="247.188963"/>
    </g>
    <g clip-path="url(#p43ed38298e)">
     <use style="fill:#440154;" x="202.81629" xlink:href="#C0_0_b481aee386" y="260.191451"/>
    </g>
    <g clip-path="url(#p43ed38298e)">
     <use style="fill:#440154;" x="201.334347" xlink:href="#C0_0_b481aee386" y="247.188963"/>
    </g>
    <g clip-path="url(#p43ed38298e)">
     <use style="fill:#440154;" x="195.406576" xlink:href="#C0_0_b481aee386" y="250.248372"/>
    </g>
    <g clip-path="url(#p43ed38298e)">
     <use style="fill:#440154;" x="195.406576" xlink:href="#C0_0_b481aee386" y="226.537952"/>
    </g>
    <g clip-path="url(#p43ed38298e)">
     <use style="fill:#440154;" x="185.032978" xlink:href="#C0_0_b481aee386" y="231.127066"/>
    </g>
    <g clip-path="url(#p43ed38298e)">
     <use style="fill:#440154;" x="195.900557" xlink:href="#C0_0_b481aee386" y="231.127066"/>
    </g>
    <g clip-path="url(#p43ed38298e)">
     <use style="fill:#440154;" x="190.466767" xlink:href="#C0_0_b481aee386" y="232.65677"/>
    </g>
    <g clip-path="url(#p43ed38298e)">
     <use style="fill:#440154;" x="192.936672" xlink:href="#C0_0_b481aee386" y="242.599849"/>
    </g>
    <g clip-path="url(#p43ed38298e)">
     <use style="fill:#440154;" x="185.032978" xlink:href="#C0_0_b481aee386" y="242.599849"/>
    </g>
    <g clip-path="url(#p43ed38298e)">
     <use style="fill:#440154;" x="185.032978" xlink:href="#C0_0_b481aee386" y="260.956303"/>
    </g>
    <g clip-path="url(#p43ed38298e)">
     <use style="fill:#440154;" x="194.418615" xlink:href="#C0_0_b481aee386" y="254.072633"/>
    </g>
    <g clip-path="url(#p43ed38298e)">
     <use style="fill:#440154;" x="201.334347" xlink:href="#C0_0_b481aee386" y="244.894406"/>
    </g>
    <g clip-path="url(#p43ed38298e)">
     <use style="fill:#440154;" x="187.008901" xlink:href="#C0_0_b481aee386" y="252.542929"/>
    </g>
    <g clip-path="url(#p43ed38298e)">
     <use style="fill:#440154;" x="184.045016" xlink:href="#C0_0_b481aee386" y="251.778076"/>
    </g>
    <g clip-path="url(#p43ed38298e)">
     <use style="fill:#440154;" x="187.996863" xlink:href="#C0_0_b481aee386" y="254.837485"/>
    </g>
    <g clip-path="url(#p43ed38298e)">
     <use style="fill:#440154;" x="136.62285" xlink:href="#C0_0_b481aee386" y="111.810116"/>
    </g>
    <g clip-path="url(#p43ed38298e)">
     <use style="fill:#440154;" x="107.971958" xlink:href="#C0_0_b481aee386" y="116.39923"/>
    </g>
    <g clip-path="url(#p43ed38298e)">
     <use style="fill:#440154;" x="114.887691" xlink:href="#C0_0_b481aee386" y="108.750707"/>
    </g>
    <g clip-path="url(#p43ed38298e)">
     <use style="fill:#440154;" x="114.887691" xlink:href="#C0_0_b481aee386" y="116.39923"/>
    </g>
    <g clip-path="url(#p43ed38298e)">
     <use style="fill:#440154;" x="106.983996" xlink:href="#C0_0_b481aee386" y="107.221003"/>
    </g>
    <g clip-path="url(#p43ed38298e)">
     <use style="fill:#440154;" x="102.044187" xlink:href="#C0_0_b481aee386" y="107.221003"/>
    </g>
    <g clip-path="url(#p43ed38298e)">
     <use style="fill:#440154;" x="99.080302" xlink:href="#C0_0_b481aee386" y="123.2829"/>
    </g>
    <g clip-path="url(#p43ed38298e)">
     <use style="fill:#440154;" x="99.080302" xlink:href="#C0_0_b481aee386" y="133.225979"/>
    </g>
    <g clip-path="url(#p43ed38298e)">
     <use style="fill:#440154;" x="113.899729" xlink:href="#C0_0_b481aee386" y="133.225979"/>
    </g>
    <g clip-path="url(#p43ed38298e)">
     <use style="fill:#440154;" x="121.309442" xlink:href="#C0_0_b481aee386" y="111.045264"/>
    </g>
    <g clip-path="url(#p43ed38298e)">
     <use style="fill:#440154;" x="317.913838" xlink:href="#C0_0_b481aee386" y="151.582433"/>
    </g>
    <g clip-path="url(#p43ed38298e)">
     <use style="fill:#440154;" x="310.504124" xlink:href="#C0_0_b481aee386" y="169.174034"/>
    </g>
    <g clip-path="url(#p43ed38298e)">
     <use style="fill:#440154;" x="333.227246" xlink:href="#C0_0_b481aee386" y="167.64433"/>
    </g>
    <g clip-path="url(#p43ed38298e)">
     <use style="fill:#440154;" x="333.227246" xlink:href="#C0_0_b481aee386" y="137.05024"/>
    </g>
    <g clip-path="url(#p43ed38298e)">
     <use style="fill:#440154;" x="212.201927" xlink:href="#C0_0_b481aee386" y="219.654282"/>
    </g>
    <g clip-path="url(#p43ed38298e)">
     <use style="fill:#440154;" x="200.346385" xlink:href="#C0_0_b481aee386" y="231.127066"/>
    </g>
    <g clip-path="url(#p43ed38298e)">
     <use style="fill:#440154;" x="233.937086" xlink:href="#C0_0_b481aee386" y="262.486008"/>
    </g>
    <g clip-path="url(#p43ed38298e)">
     <use style="fill:#440154;" x="202.81629" xlink:href="#C0_0_b481aee386" y="270.899382"/>
    </g>
    <g clip-path="url(#p43ed38298e)">
     <use style="fill:#440154;" x="198.864443" xlink:href="#C0_0_b481aee386" y="241.070145"/>
    </g>
    <g clip-path="url(#p43ed38298e)">
     <use style="fill:#440154;" x="248.756513" xlink:href="#C0_0_b481aee386" y="212.00576"/>
    </g>
    <g clip-path="url(#p43ed38298e)">
     <use style="fill:#440154;" x="204.298232" xlink:href="#C0_0_b481aee386" y="204.357237"/>
    </g>
    <g clip-path="url(#p43ed38298e)">
     <use style="fill:#440154;" x="180.093169" xlink:href="#C0_0_b481aee386" y="193.649306"/>
    </g>
    <g clip-path="url(#p43ed38298e)">
     <use style="fill:#440154;" x="179.105207" xlink:href="#C0_0_b481aee386" y="215.065169"/>
    </g>
    <g clip-path="url(#p43ed38298e)">
     <use style="fill:#440154;" x="176.141321" xlink:href="#C0_0_b481aee386" y="236.481031"/>
    </g>
    <g clip-path="url(#p43ed38298e)">
     <use style="fill:#440154;" x="180.093169" xlink:href="#C0_0_b481aee386" y="236.481031"/>
    </g>
    <g clip-path="url(#p43ed38298e)">
     <use style="fill:#440154;" x="193.430653" xlink:href="#C0_0_b481aee386" y="236.481031"/>
    </g>
    <g clip-path="url(#p43ed38298e)">
     <use style="fill:#440154;" x="324.335589" xlink:href="#C0_0_b481aee386" y="154.641842"/>
    </g>
    <g clip-path="url(#p43ed38298e)">
     <use style="fill:#440154;" x="326.311513" xlink:href="#C0_0_b481aee386" y="144.698763"/>
    </g>
    <g clip-path="url(#p43ed38298e)">
     <use style="fill:#440154;" x="324.82957" xlink:href="#C0_0_b481aee386" y="150.052728"/>
    </g>
   </g>
   <g id="matplotlib.axis_1">
    <g id="xtick_1">
     <g id="line2d_1">
      <defs>
       <path d="M 0 0 
L 0 3.5 
" id="ma5d9f97f55" style="stroke:#777777;stroke-width:0.8;"/>
      </defs>
      <g>
       <use style="fill:#777777;stroke:#777777;stroke-width:0.8;" x="96.116417" xlink:href="#ma5d9f97f55" y="307.584"/>
      </g>
     </g>
     <g id="text_1">
      <!-- 5 -->
      <defs>
       <path d="M 10.796875 72.90625 
L 49.515625 72.90625 
L 49.515625 64.59375 
L 19.828125 64.59375 
L 19.828125 46.734375 
Q 21.96875 47.46875 24.109375 47.828125 
Q 26.265625 48.1875 28.421875 48.1875 
Q 40.625 48.1875 47.75 41.5 
Q 54.890625 34.8125 54.890625 23.390625 
Q 54.890625 11.625 47.5625 5.09375 
Q 40.234375 -1.421875 26.90625 -1.421875 
Q 22.3125 -1.421875 17.546875 -0.640625 
Q 12.796875 0.140625 7.71875 1.703125 
L 7.71875 11.625 
Q 12.109375 9.234375 16.796875 8.0625 
Q 21.484375 6.890625 26.703125 6.890625 
Q 35.15625 6.890625 40.078125 11.328125 
Q 45.015625 15.765625 45.015625 23.390625 
Q 45.015625 31 40.078125 35.4375 
Q 35.15625 39.890625 26.703125 39.890625 
Q 22.75 39.890625 18.8125 39.015625 
Q 14.890625 38.140625 10.796875 36.28125 
z
" id="DejaVuSans-35"/>
      </defs>
      <g style="fill:#777777;" transform="translate(92.935167 322.182437)scale(0.1 -0.1)">
       <use xlink:href="#DejaVuSans-35"/>
      </g>
     </g>
    </g>
    <g id="xtick_2">
     <g id="line2d_2">
      <g>
       <use style="fill:#777777;stroke:#777777;stroke-width:0.8;" x="145.514506" xlink:href="#ma5d9f97f55" y="307.584"/>
      </g>
     </g>
     <g id="text_2">
      <!-- 10 -->
      <defs>
       <path d="M 12.40625 8.296875 
L 28.515625 8.296875 
L 28.515625 63.921875 
L 10.984375 60.40625 
L 10.984375 69.390625 
L 28.421875 72.90625 
L 38.28125 72.90625 
L 38.28125 8.296875 
L 54.390625 8.296875 
L 54.390625 0 
L 12.40625 0 
z
" id="DejaVuSans-31"/>
       <path d="M 31.78125 66.40625 
Q 24.171875 66.40625 20.328125 58.90625 
Q 16.5 51.421875 16.5 36.375 
Q 16.5 21.390625 20.328125 13.890625 
Q 24.171875 6.390625 31.78125 6.390625 
Q 39.453125 6.390625 43.28125 13.890625 
Q 47.125 21.390625 47.125 36.375 
Q 47.125 51.421875 43.28125 58.90625 
Q 39.453125 66.40625 31.78125 66.40625 
M 31.78125 74.21875 
Q 44.046875 74.21875 50.515625 64.515625 
Q 56.984375 54.828125 56.984375 36.375 
Q 56.984375 17.96875 50.515625 8.265625 
Q 44.046875 -1.421875 31.78125 -1.421875 
Q 19.53125 -1.421875 13.0625 8.265625 
Q 6.59375 17.96875 6.59375 36.375 
Q 6.59375 54.828125 13.0625 64.515625 
Q 19.53125 74.21875 31.78125 74.21875 
" id="DejaVuSans-30"/>
      </defs>
      <g style="fill:#777777;" transform="translate(139.152006 322.182437)scale(0.1 -0.1)">
       <use xlink:href="#DejaVuSans-31"/>
       <use x="63.623047" xlink:href="#DejaVuSans-30"/>
      </g>
     </g>
    </g>
    <g id="xtick_3">
     <g id="line2d_3">
      <g>
       <use style="fill:#777777;stroke:#777777;stroke-width:0.8;" x="194.912595" xlink:href="#ma5d9f97f55" y="307.584"/>
      </g>
     </g>
     <g id="text_3">
      <!-- 15 -->
      <g style="fill:#777777;" transform="translate(188.550095 322.182437)scale(0.1 -0.1)">
       <use xlink:href="#DejaVuSans-31"/>
       <use x="63.623047" xlink:href="#DejaVuSans-35"/>
      </g>
     </g>
    </g>
    <g id="xtick_4">
     <g id="line2d_4">
      <g>
       <use style="fill:#777777;stroke:#777777;stroke-width:0.8;" x="244.310685" xlink:href="#ma5d9f97f55" y="307.584"/>
      </g>
     </g>
     <g id="text_4">
      <!-- 20 -->
      <defs>
       <path d="M 19.1875 8.296875 
L 53.609375 8.296875 
L 53.609375 0 
L 7.328125 0 
L 7.328125 8.296875 
Q 12.9375 14.109375 22.625 23.890625 
Q 32.328125 33.6875 34.8125 36.53125 
Q 39.546875 41.84375 41.421875 45.53125 
Q 43.3125 49.21875 43.3125 52.78125 
Q 43.3125 58.59375 39.234375 62.25 
Q 35.15625 65.921875 28.609375 65.921875 
Q 23.96875 65.921875 18.8125 64.3125 
Q 13.671875 62.703125 7.8125 59.421875 
L 7.8125 69.390625 
Q 13.765625 71.78125 18.9375 73 
Q 24.125 74.21875 28.421875 74.21875 
Q 39.75 74.21875 46.484375 68.546875 
Q 53.21875 62.890625 53.21875 53.421875 
Q 53.21875 48.921875 51.53125 44.890625 
Q 49.859375 40.875 45.40625 35.40625 
Q 44.1875 33.984375 37.640625 27.21875 
Q 31.109375 20.453125 19.1875 8.296875 
" id="DejaVuSans-32"/>
      </defs>
      <g style="fill:#777777;" transform="translate(237.948185 322.182437)scale(0.1 -0.1)">
       <use xlink:href="#DejaVuSans-32"/>
       <use x="63.623047" xlink:href="#DejaVuSans-30"/>
      </g>
     </g>
    </g>
    <g id="xtick_5">
     <g id="line2d_5">
      <g>
       <use style="fill:#777777;stroke:#777777;stroke-width:0.8;" x="293.708774" xlink:href="#ma5d9f97f55" y="307.584"/>
      </g>
     </g>
     <g id="text_5">
      <!-- 25 -->
      <g style="fill:#777777;" transform="translate(287.346274 322.182437)scale(0.1 -0.1)">
       <use xlink:href="#DejaVuSans-32"/>
       <use x="63.623047" xlink:href="#DejaVuSans-35"/>
      </g>
     </g>
    </g>
    <g id="xtick_6">
     <g id="line2d_6">
      <g>
       <use style="fill:#777777;stroke:#777777;stroke-width:0.8;" x="343.106863" xlink:href="#ma5d9f97f55" y="307.584"/>
      </g>
     </g>
     <g id="text_6">
      <!-- 30 -->
      <defs>
       <path d="M 40.578125 39.3125 
Q 47.65625 37.796875 51.625 33 
Q 55.609375 28.21875 55.609375 21.1875 
Q 55.609375 10.40625 48.1875 4.484375 
Q 40.765625 -1.421875 27.09375 -1.421875 
Q 22.515625 -1.421875 17.65625 -0.515625 
Q 12.796875 0.390625 7.625 2.203125 
L 7.625 11.71875 
Q 11.71875 9.328125 16.59375 8.109375 
Q 21.484375 6.890625 26.8125 6.890625 
Q 36.078125 6.890625 40.9375 10.546875 
Q 45.796875 14.203125 45.796875 21.1875 
Q 45.796875 27.640625 41.28125 31.265625 
Q 36.765625 34.90625 28.71875 34.90625 
L 20.21875 34.90625 
L 20.21875 43.015625 
L 29.109375 43.015625 
Q 36.375 43.015625 40.234375 45.921875 
Q 44.09375 48.828125 44.09375 54.296875 
Q 44.09375 59.90625 40.109375 62.90625 
Q 36.140625 65.921875 28.71875 65.921875 
Q 24.65625 65.921875 20.015625 65.03125 
Q 15.375 64.15625 9.8125 62.3125 
L 9.8125 71.09375 
Q 15.4375 72.65625 20.34375 73.4375 
Q 25.25 74.21875 29.59375 74.21875 
Q 40.828125 74.21875 47.359375 69.109375 
Q 53.90625 64.015625 53.90625 55.328125 
Q 53.90625 49.265625 50.4375 45.09375 
Q 46.96875 40.921875 40.578125 39.3125 
" id="DejaVuSans-33"/>
      </defs>
      <g style="fill:#777777;" transform="translate(336.744363 322.182437)scale(0.1 -0.1)">
       <use xlink:href="#DejaVuSans-33"/>
       <use x="63.623047" xlink:href="#DejaVuSans-30"/>
      </g>
     </g>
    </g>
    <g id="xtick_7">
     <g id="line2d_7">
      <g>
       <use style="fill:#777777;stroke:#777777;stroke-width:0.8;" x="392.504953" xlink:href="#ma5d9f97f55" y="307.584"/>
      </g>
     </g>
     <g id="text_7">
      <!-- 35 -->
      <g style="fill:#777777;" transform="translate(386.142453 322.182437)scale(0.1 -0.1)">
       <use xlink:href="#DejaVuSans-33"/>
       <use x="63.623047" xlink:href="#DejaVuSans-35"/>
      </g>
     </g>
    </g>
    <g id="text_8">
     <!-- x1 -->
     <defs>
      <path d="M 54.890625 54.6875 
L 35.109375 28.078125 
L 55.90625 0 
L 45.3125 0 
L 29.390625 21.484375 
L 13.484375 0 
L 2.875 0 
L 24.125 28.609375 
L 4.6875 54.6875 
L 15.28125 54.6875 
L 29.78125 35.203125 
L 44.28125 54.6875 
z
" id="DejaVuSans-78"/>
     </defs>
     <g style="fill:#555555;" transform="translate(223.87875 343.459)scale(0.2 -0.2)">
      <use xlink:href="#DejaVuSans-78"/>
      <use x="59.179688" xlink:href="#DejaVuSans-31"/>
     </g>
    </g>
   </g>
   <g id="matplotlib.axis_2">
    <g id="ytick_1">
     <g id="line2d_8">
      <defs>
       <path d="M 0 0 
L -3.5 0 
" id="m2d799e3158" style="stroke:#777777;stroke-width:0.8;"/>
      </defs>
      <g>
       <use style="fill:#777777;stroke:#777777;stroke-width:0.8;" x="57.6" xlink:href="#m2d799e3158" y="302.258324"/>
      </g>
     </g>
     <g id="text_9">
      <!-- 2 -->
      <g style="fill:#777777;" transform="translate(44.2375 306.057543)scale(0.1 -0.1)">
       <use xlink:href="#DejaVuSans-32"/>
      </g>
     </g>
    </g>
    <g id="ytick_2">
     <g id="line2d_9">
      <g>
       <use style="fill:#777777;stroke:#777777;stroke-width:0.8;" x="57.6" xlink:href="#m2d799e3158" y="271.664235"/>
      </g>
     </g>
     <g id="text_10">
      <!-- 4 -->
      <defs>
       <path d="M 37.796875 64.3125 
L 12.890625 25.390625 
L 37.796875 25.390625 
z
M 35.203125 72.90625 
L 47.609375 72.90625 
L 47.609375 25.390625 
L 58.015625 25.390625 
L 58.015625 17.1875 
L 47.609375 17.1875 
L 47.609375 0 
L 37.796875 0 
L 37.796875 17.1875 
L 4.890625 17.1875 
L 4.890625 26.703125 
z
" id="DejaVuSans-34"/>
      </defs>
      <g style="fill:#777777;" transform="translate(44.2375 275.463453)scale(0.1 -0.1)">
       <use xlink:href="#DejaVuSans-34"/>
      </g>
     </g>
    </g>
    <g id="ytick_3">
     <g id="line2d_10">
      <g>
       <use style="fill:#777777;stroke:#777777;stroke-width:0.8;" x="57.6" xlink:href="#m2d799e3158" y="241.070145"/>
      </g>
     </g>
     <g id="text_11">
      <!-- 6 -->
      <defs>
       <path d="M 33.015625 40.375 
Q 26.375 40.375 22.484375 35.828125 
Q 18.609375 31.296875 18.609375 23.390625 
Q 18.609375 15.53125 22.484375 10.953125 
Q 26.375 6.390625 33.015625 6.390625 
Q 39.65625 6.390625 43.53125 10.953125 
Q 47.40625 15.53125 47.40625 23.390625 
Q 47.40625 31.296875 43.53125 35.828125 
Q 39.65625 40.375 33.015625 40.375 
M 52.59375 71.296875 
L 52.59375 62.3125 
Q 48.875 64.0625 45.09375 64.984375 
Q 41.3125 65.921875 37.59375 65.921875 
Q 27.828125 65.921875 22.671875 59.328125 
Q 17.53125 52.734375 16.796875 39.40625 
Q 19.671875 43.65625 24.015625 45.921875 
Q 28.375 48.1875 33.59375 48.1875 
Q 44.578125 48.1875 50.953125 41.515625 
Q 57.328125 34.859375 57.328125 23.390625 
Q 57.328125 12.15625 50.6875 5.359375 
Q 44.046875 -1.421875 33.015625 -1.421875 
Q 20.359375 -1.421875 13.671875 8.265625 
Q 6.984375 17.96875 6.984375 36.375 
Q 6.984375 53.65625 15.1875 63.9375 
Q 23.390625 74.21875 37.203125 74.21875 
Q 40.921875 74.21875 44.703125 73.484375 
Q 48.484375 72.75 52.59375 71.296875 
" id="DejaVuSans-36"/>
      </defs>
      <g style="fill:#777777;" transform="translate(44.2375 244.869364)scale(0.1 -0.1)">
       <use xlink:href="#DejaVuSans-36"/>
      </g>
     </g>
    </g>
    <g id="ytick_4">
     <g id="line2d_11">
      <g>
       <use style="fill:#777777;stroke:#777777;stroke-width:0.8;" x="57.6" xlink:href="#m2d799e3158" y="210.476055"/>
      </g>
     </g>
     <g id="text_12">
      <!-- 8 -->
      <defs>
       <path d="M 31.78125 34.625 
Q 24.75 34.625 20.71875 30.859375 
Q 16.703125 27.09375 16.703125 20.515625 
Q 16.703125 13.921875 20.71875 10.15625 
Q 24.75 6.390625 31.78125 6.390625 
Q 38.8125 6.390625 42.859375 10.171875 
Q 46.921875 13.96875 46.921875 20.515625 
Q 46.921875 27.09375 42.890625 30.859375 
Q 38.875 34.625 31.78125 34.625 
M 21.921875 38.8125 
Q 15.578125 40.375 12.03125 44.71875 
Q 8.5 49.078125 8.5 55.328125 
Q 8.5 64.0625 14.71875 69.140625 
Q 20.953125 74.21875 31.78125 74.21875 
Q 42.671875 74.21875 48.875 69.140625 
Q 55.078125 64.0625 55.078125 55.328125 
Q 55.078125 49.078125 51.53125 44.71875 
Q 48 40.375 41.703125 38.8125 
Q 48.828125 37.15625 52.796875 32.3125 
Q 56.78125 27.484375 56.78125 20.515625 
Q 56.78125 9.90625 50.3125 4.234375 
Q 43.84375 -1.421875 31.78125 -1.421875 
Q 19.734375 -1.421875 13.25 4.234375 
Q 6.78125 9.90625 6.78125 20.515625 
Q 6.78125 27.484375 10.78125 32.3125 
Q 14.796875 37.15625 21.921875 38.8125 
M 18.3125 54.390625 
Q 18.3125 48.734375 21.84375 45.5625 
Q 25.390625 42.390625 31.78125 42.390625 
Q 38.140625 42.390625 41.71875 45.5625 
Q 45.3125 48.734375 45.3125 54.390625 
Q 45.3125 60.0625 41.71875 63.234375 
Q 38.140625 66.40625 31.78125 66.40625 
Q 25.390625 66.40625 21.84375 63.234375 
Q 18.3125 60.0625 18.3125 54.390625 
" id="DejaVuSans-38"/>
      </defs>
      <g style="fill:#777777;" transform="translate(44.2375 214.275274)scale(0.1 -0.1)">
       <use xlink:href="#DejaVuSans-38"/>
      </g>
     </g>
    </g>
    <g id="ytick_5">
     <g id="line2d_12">
      <g>
       <use style="fill:#777777;stroke:#777777;stroke-width:0.8;" x="57.6" xlink:href="#m2d799e3158" y="179.881966"/>
      </g>
     </g>
     <g id="text_13">
      <!-- 10 -->
      <g style="fill:#777777;" transform="translate(37.875 183.681184)scale(0.1 -0.1)">
       <use xlink:href="#DejaVuSans-31"/>
       <use x="63.623047" xlink:href="#DejaVuSans-30"/>
      </g>
     </g>
    </g>
    <g id="ytick_6">
     <g id="line2d_13">
      <g>
       <use style="fill:#777777;stroke:#777777;stroke-width:0.8;" x="57.6" xlink:href="#m2d799e3158" y="149.287876"/>
      </g>
     </g>
     <g id="text_14">
      <!-- 12 -->
      <g style="fill:#777777;" transform="translate(37.875 153.087095)scale(0.1 -0.1)">
       <use xlink:href="#DejaVuSans-31"/>
       <use x="63.623047" xlink:href="#DejaVuSans-32"/>
      </g>
     </g>
    </g>
    <g id="ytick_7">
     <g id="line2d_14">
      <g>
       <use style="fill:#777777;stroke:#777777;stroke-width:0.8;" x="57.6" xlink:href="#m2d799e3158" y="118.693786"/>
      </g>
     </g>
     <g id="text_15">
      <!-- 14 -->
      <g style="fill:#777777;" transform="translate(37.875 122.493005)scale(0.1 -0.1)">
       <use xlink:href="#DejaVuSans-31"/>
       <use x="63.623047" xlink:href="#DejaVuSans-34"/>
      </g>
     </g>
    </g>
    <g id="ytick_8">
     <g id="line2d_15">
      <g>
       <use style="fill:#777777;stroke:#777777;stroke-width:0.8;" x="57.6" xlink:href="#m2d799e3158" y="88.099697"/>
      </g>
     </g>
     <g id="text_16">
      <!-- 16 -->
      <g style="fill:#777777;" transform="translate(37.875 91.898916)scale(0.1 -0.1)">
       <use xlink:href="#DejaVuSans-31"/>
       <use x="63.623047" xlink:href="#DejaVuSans-36"/>
      </g>
     </g>
    </g>
    <g id="ytick_9">
     <g id="line2d_16">
      <g>
       <use style="fill:#777777;stroke:#777777;stroke-width:0.8;" x="57.6" xlink:href="#m2d799e3158" y="57.505607"/>
      </g>
     </g>
     <g id="text_17">
      <!-- 18 -->
      <g style="fill:#777777;" transform="translate(37.875 61.304826)scale(0.1 -0.1)">
       <use xlink:href="#DejaVuSans-31"/>
       <use x="63.623047" xlink:href="#DejaVuSans-38"/>
      </g>
     </g>
    </g>
    <g id="text_18">
     <!-- x2 -->
     <g style="fill:#555555;" transform="translate(29.715625 186.80925)rotate(-90)scale(0.2 -0.2)">
      <use xlink:href="#DejaVuSans-78"/>
      <use x="59.179688" xlink:href="#DejaVuSans-32"/>
     </g>
    </g>
   </g>
   <g id="patch_3">
    <path d="M 57.6 307.584 
L 57.6 41.472 
" style="fill:none;stroke:#999999;stroke-linecap:square;stroke-linejoin:miter;stroke-width:0.8;"/>
   </g>
   <g id="patch_4">
    <path d="M 57.6 307.584 
L 414.72 307.584 
" style="fill:none;stroke:#999999;stroke-linecap:square;stroke-linejoin:miter;stroke-width:0.8;"/>
   </g>
  </g>
 </g>
 <defs>
  <clipPath id="p43ed38298e">
   <rect height="266.112" width="357.12" x="57.6" y="41.472"/>
  </clipPath>
 </defs>
</svg>
